<?xml version="1.0" encoding="utf-8"?>
<!-- Generator: Adobe Illustrator 26.3.1, SVG Export Plug-In . SVG Version: 6.00 Build 0)  -->
<svg version="1.1" id="Layer_1" xmlns="http://www.w3.org/2000/svg" xmlns:xlink="http://www.w3.org/1999/xlink" x="0px" y="0px"
	 viewBox="0 0 825.8 480" style="enable-background:new 0 0 825.8 480;" xml:space="preserve">
<style type="text/css">
	.st0{fill:#E7E8EA;}
	.st1{fill:#FF1D2E;}
	.st2{fill:#FFC100;}
	.st3{fill:#00DC86;}
	.st4{fill:#FFFFFF;}
	.st5{fill:#FFB8CF;}
	.st6{fill:#005CFF;}
	.st7{clip-path:url(#SVGID_00000156588464285957789190000007956491299862908341_);}
	.st8{fill:#FF80AA;}
	.st9{fill:#FF403D;}
	.st10{fill:#101834;}
</style>
<g id="a">
	<g>
		<rect y="15.5" class="st0" width="825.8" height="464.5"/>
		<g>
			<path class="st0" d="M819.6,0H6.2C2.8,0,0,2.8,0,6.2v9.3h825.8V6.2C825.8,2.8,823,0,819.6,0L819.6,0z"/>
			<circle class="st1" cx="9.2" cy="7.7" r="3.2"/>
			<circle class="st2" cx="18.7" cy="7.7" r="3.2"/>
			<circle class="st3" cx="28.1" cy="7.7" r="3.2"/>
		</g>
		<rect x="1.5" y="15.5" class="st4" width="822.8" height="462.8"/>
	</g>
	<g>
		<g>
			<rect x="23.7" y="15.5" class="st4" width="778.3" height="462.8"/>
			<g>
				<polygon class="st5" points="754.4,98.7 733.1,98.7 733.1,68.4 739.2,68.4 				"/>
				<polygon class="st6" points="757.5,68.4 757.5,74.5 751.4,74.5 751.4,80.6 745.3,80.6 745.3,98.8 751.5,98.8 751.5,98.8 
					763.6,98.8 763.6,68.4 				"/>
				<g>
					<defs>
						<rect id="SVGID_1_" x="733.1" y="80.4" width="18.4" height="18.4"/>
					</defs>
					<clipPath id="SVGID_00000048473053401178768440000014230370222075329952_">
						<use xlink:href="#SVGID_1_"  style="overflow:visible;"/>
					</clipPath>
					<g style="clip-path:url(#SVGID_00000048473053401178768440000014230370222075329952_);">
						<circle class="st8" cx="733.1" cy="98.8" r="18.2"/>
						<circle class="st9" cx="733.1" cy="98.8" r="9.1"/>
					</g>
				</g>
				<rect x="730" y="98.8" width="36.5" height="0.6"/>
			</g>
			<g>
				<path class="st10" d="M80.7,105.1l-1.8-5.4h-8.1l-1.8,5.4h-3.2L72.3,86h5.1l6.5,19.2L80.7,105.1L80.7,105.1z M71.8,96.9H78
					l-3.1-9.4L71.8,96.9z"/>
				<path class="st10" d="M86.9,104.7c-1.1-0.5-1.9-1.3-2.4-2.4l2.1-1.4c0.3,0.6,0.8,1.1,1.6,1.5s1.5,0.6,2.3,0.6
					c0.8,0,1.4-0.2,1.8-0.4c0.4-0.3,0.6-0.7,0.6-1.2c0-0.4-0.2-0.8-0.6-1s-1-0.5-1.7-0.7l-1.4-0.4c-1.5-0.4-2.5-0.9-3.2-1.5
					s-1-1.4-1-2.3c0-0.7,0.2-1.4,0.6-2s1-1.1,1.8-1.5c0.8-0.4,1.7-0.6,2.8-0.6c1.3,0,2.5,0.3,3.4,0.8c0.9,0.6,1.6,1.2,2,2l-2.2,1.4
					c-0.3-0.5-0.8-1-1.3-1.3s-1.2-0.5-2-0.5c-0.7,0-1.2,0.1-1.6,0.4S88,94.8,88,95.2s0.2,0.7,0.6,0.9c0.4,0.2,1,0.4,1.8,0.6l1.5,0.4
					c1.4,0.3,2.4,0.8,3,1.5s1,1.4,1,2.4c0,0.9-0.2,1.6-0.7,2.3c-0.5,0.7-1.1,1.2-1.9,1.5c-0.8,0.4-1.7,0.6-2.7,0.6
					C89.2,105.5,88,105.2,86.9,104.7L86.9,104.7z"/>
				<path class="st10" d="M110.7,105.1H107l-6.1-7.2v7.2H98V86h2.9v11.8l5.8-6.2h3.6l-5.8,6.1L110.7,105.1L110.7,105.1z"/>
				<path class="st10" d="M135.5,92.6c0.8,0.8,1.2,1.9,1.2,3.4v9.1h-2.9v-8.6c0-0.9-0.2-1.5-0.6-1.9c-0.4-0.4-1-0.6-1.7-0.6
					s-1.5,0.3-2.1,0.9s-0.9,1.4-0.9,2.4v7.8h-2.9v-8.6c0-0.9-0.2-1.5-0.6-1.9c-0.4-0.4-1-0.6-1.7-0.6s-1.5,0.3-2.1,0.9
					s-0.9,1.4-0.9,2.4v7.8h-2.9V91.7h2.9v1.8c0.4-0.7,0.9-1.2,1.6-1.6s1.4-0.5,2.2-0.5c0.9,0,1.7,0.2,2.4,0.6c0.7,0.4,1.2,1,1.5,1.8
					c0.5-0.8,1.1-1.4,1.8-1.8s1.6-0.6,2.5-0.6C133.6,91.4,134.7,91.8,135.5,92.6L135.5,92.6z"/>
				<path class="st10" d="M149.5,92.3c1.1,0.6,1.9,1.5,2.5,2.6s0.9,2.3,0.9,3.7l-11,1.6c0.3,0.8,0.8,1.5,1.6,2
					c0.7,0.5,1.5,0.7,2.4,0.7s1.7-0.2,2.4-0.7s1.2-1.1,1.6-1.8l2.6,0.9c-0.6,1.3-1.4,2.3-2.6,3.1s-2.5,1.2-4,1.2
					c-1.3,0-2.5-0.3-3.6-0.9c-1.1-0.6-1.9-1.5-2.6-2.6s-0.9-2.3-0.9-3.6s0.3-2.5,0.9-3.6s1.5-1.9,2.5-2.5c1.1-0.6,2.3-0.9,3.6-0.9
					S148.4,91.7,149.5,92.3L149.5,92.3z M143.1,95c-0.8,0.7-1.2,1.6-1.4,2.7l7.9-1.1c-0.6-1.8-1.8-2.7-3.7-2.7
					C144.8,94,143.8,94.3,143.1,95L143.1,95z"/>
				<path class="st10" d="M173.4,91.7v13.5h-2.8v-2c-0.5,0.7-1.1,1.3-1.9,1.7c-0.8,0.4-1.6,0.6-2.6,0.6c-1.2,0-2.4-0.3-3.4-0.9
					s-1.8-1.5-2.3-2.5c-0.6-1.1-0.9-2.2-0.9-3.5s0.3-2.5,0.9-3.5c0.6-1.1,1.4-1.9,2.3-2.5c1-0.6,2.1-0.9,3.4-0.9
					c1,0,1.9,0.2,2.6,0.6c0.8,0.4,1.4,1,1.9,1.7v-2L173.4,91.7L173.4,91.7z M168.6,102.2c0.6-0.4,1.1-0.9,1.5-1.5
					c0.4-0.7,0.6-1.4,0.6-2.2c0-0.9-0.2-1.7-0.6-2.3c-0.4-0.7-0.9-1.1-1.5-1.5c-0.6-0.3-1.3-0.5-2-0.5c-0.8,0-1.4,0.2-2.1,0.6
					c-0.6,0.4-1.1,0.9-1.4,1.6c-0.4,0.7-0.5,1.4-0.5,2.2s0.2,1.5,0.5,2.2c0.4,0.7,0.8,1.2,1.4,1.6c0.6,0.4,1.3,0.6,2.1,0.6
					S167.9,102.5,168.6,102.2L168.6,102.2z"/>
				<path class="st10" d="M187.2,92.7c0.9,0.9,1.4,2.1,1.4,3.7v8.8h-2.9V97c0-1.1-0.2-1.8-0.7-2.3c-0.4-0.5-1.1-0.7-2.1-0.7
					c-1.1,0-2,0.3-2.6,1s-1,1.6-1,2.8v7.4h-2.9V91.7h2.9v1.9c0.4-0.7,1-1.3,1.8-1.7c0.8-0.4,1.6-0.6,2.5-0.6
					C185.1,91.4,186.2,91.8,187.2,92.7L187.2,92.7z"/>
				<path class="st10" d="M200.1,91.7h3l-5.4,18.4h-3l1.4-4.9h-2.6l-3.9-13.5h3l3.7,12.9L200.1,91.7L200.1,91.7z"/>
				<path class="st10" d="M213.4,91.7V94h-4.2v7.1c0,0.6,0.2,1,0.5,1.3s0.8,0.4,1.3,0.4c0.7,0,1.4-0.2,2-0.5v2.6
					c-0.3,0.2-0.7,0.3-1.2,0.4c-0.5,0.1-0.9,0.1-1.3,0.1c-1.5,0-2.5-0.3-3.2-1.1c-0.7-0.7-1.1-1.8-1.1-3.2V94h-1.9v-2.3h1.9v-3.3
					l2.9-2.2v5.5L213.4,91.7L213.4,91.7z"/>
				<path class="st10" d="M226.3,92.7c0.9,0.9,1.4,2.1,1.4,3.7v8.8h-2.9V97c0-1.1-0.2-1.8-0.7-2.3c-0.4-0.5-1.1-0.7-2.1-0.7
					c-1.1,0-2,0.3-2.6,1s-1,1.6-1,2.8v7.4h-2.9V86h2.9v7.6c0.4-0.7,1-1.3,1.8-1.7c0.8-0.4,1.6-0.6,2.5-0.6
					C224.2,91.4,225.4,91.8,226.3,92.7L226.3,92.7z"/>
				<path class="st10" d="M230.6,89.5c-0.4-0.3-0.5-0.8-0.5-1.3s0.2-0.9,0.5-1.3s0.8-0.5,1.3-0.5s0.9,0.2,1.3,0.5
					c0.4,0.3,0.5,0.8,0.5,1.3s-0.2,0.9-0.5,1.3s-0.8,0.5-1.3,0.5S230.9,89.8,230.6,89.5z M230.4,91.7h2.9v13.5h-2.9V91.7z"/>
				<path class="st10" d="M247.1,92.7c0.9,0.9,1.4,2.1,1.4,3.7v8.8h-2.9V97c0-1.1-0.2-1.8-0.7-2.3c-0.4-0.5-1.1-0.7-2.1-0.7
					c-1.1,0-2,0.3-2.6,1s-1,1.6-1,2.8v7.4h-2.9V91.7h2.9v1.9c0.4-0.7,1-1.3,1.8-1.7c0.8-0.4,1.6-0.6,2.5-0.6
					C244.9,91.4,246.1,91.8,247.1,92.7L247.1,92.7z"/>
				<path class="st10" d="M264.2,91.7V104c0,1.2-0.3,2.3-0.8,3.3c-0.5,1-1.3,1.8-2.4,2.3c-1,0.6-2.2,0.8-3.5,0.8
					c-1.5,0-2.8-0.3-3.9-0.9s-1.9-1.4-2.4-2.5l2.6-1.2c0.4,0.6,0.9,1.1,1.5,1.5c0.7,0.4,1.4,0.6,2.3,0.6c1.2,0,2.1-0.4,2.8-1.1
					s1-1.7,1-2.8V103c-0.5,0.7-1.1,1.2-1.9,1.6c-0.7,0.4-1.6,0.6-2.5,0.6c-1.2,0-2.4-0.3-3.3-0.9c-1-0.6-1.7-1.4-2.3-2.5
					c-0.6-1.1-0.8-2.2-0.8-3.5s0.3-2.4,0.8-3.5c0.6-1.1,1.3-1.9,2.3-2.5c1-0.6,2.1-0.9,3.3-0.9c1,0,1.8,0.2,2.6,0.6
					c0.8,0.4,1.4,0.9,1.9,1.6v-1.9L264.2,91.7L264.2,91.7z M259.5,101.9c0.6-0.4,1.1-0.8,1.4-1.5c0.4-0.6,0.5-1.4,0.5-2.2
					c0-0.9-0.2-1.6-0.6-2.2s-0.9-1.1-1.5-1.4s-1.2-0.5-1.9-0.5c-0.8,0-1.4,0.2-2,0.6s-1.1,0.9-1.4,1.5c-0.3,0.6-0.5,1.3-0.5,2.1
					c0,1.2,0.4,2.2,1.1,3c0.8,0.8,1.7,1.2,2.8,1.2C258.2,102.4,258.9,102.2,259.5,101.9L259.5,101.9z"/>
			</g>
		</g>
		<g>
			<path class="st10" d="M415.9,221.4h1.3l-7,22.2h-1.3L415.9,221.4z"/>
			<path class="st10" d="M145.3,258.4h4.3l-5.3,25.8H137l-5.1-23.9l-5.1,23.9h-7.3l-5.3-25.8h4.3l4.9,24.2l5.1-24.2h6.9l5.1,24
				L145.3,258.4z"/>
			<path class="st10" d="M166.6,267.5c1.2,1.2,1.9,2.8,1.9,4.9v11.8h-3.9v-10.9c0-1.4-0.3-2.5-0.9-3.1c-0.6-0.6-1.5-1-2.8-1
				c-1.5,0-2.7,0.5-3.6,1.3c-0.9,0.9-1.4,2.1-1.4,3.7v9.9H152v-25.8h3.9v10.3c0.6-1,1.4-1.7,2.4-2.2s2.2-0.8,3.4-0.8
				C163.7,265.7,165.4,266.3,166.6,267.5L166.6,267.5z"/>
			<path class="st10" d="M189.9,266.1v18.1h-3.8v-2.7c-0.7,1-1.5,1.7-2.6,2.3s-2.2,0.8-3.5,0.8c-1.7,0-3.2-0.4-4.5-1.2
				s-2.4-2-3.1-3.4s-1.1-3-1.1-4.8s0.4-3.3,1.1-4.8s1.8-2.6,3.1-3.4c1.3-0.8,2.8-1.2,4.5-1.2c1.3,0,2.5,0.3,3.5,0.8s1.9,1.3,2.6,2.3
				v-2.7L189.9,266.1L189.9,266.1z M183.4,280.2c0.8-0.5,1.5-1.2,2-2.1s0.7-1.9,0.7-3c0-1.2-0.2-2.2-0.8-3.1c-0.5-0.9-1.2-1.5-2-2
				s-1.7-0.7-2.7-0.7c-1,0-1.9,0.2-2.8,0.8c-0.8,0.5-1.5,1.2-1.9,2.1c-0.5,0.9-0.7,1.9-0.7,3s0.2,2.1,0.7,3s1.1,1.6,1.9,2.1
				s1.8,0.8,2.8,0.8S182.6,280.7,183.4,280.2L183.4,280.2z"/>
			<path class="st10" d="M205,266.1v3.2h-5.6v9.5c0,0.8,0.2,1.3,0.7,1.7s1,0.6,1.8,0.6c0.9,0,1.8-0.2,2.7-0.7v3.5
				c-0.4,0.2-0.9,0.4-1.6,0.5c-0.6,0.1-1.2,0.2-1.7,0.2c-2,0-3.4-0.5-4.4-1.4c-0.9-0.9-1.4-2.4-1.4-4.3v-9.5h-2.6v-3.2h2.6v-4.5
				l3.9-3v7.4L205,266.1L205,266.1z"/>
			<path class="st10" d="M208.9,258.5h3.8l-2.3,7.4h-3.5L208.9,258.5L208.9,258.5z"/>
			<path class="st10" d="M215.4,283.6c-1.4-0.7-2.5-1.8-3.2-3.2l2.8-1.9c0.4,0.8,1.1,1.5,2.1,2c1,0.5,2,0.8,3.1,0.8
				c1,0,1.8-0.2,2.4-0.6c0.6-0.4,0.9-1,0.9-1.6c0-0.6-0.3-1-0.8-1.4c-0.5-0.3-1.3-0.6-2.3-0.9l-1.9-0.5c-2-0.5-3.4-1.2-4.3-2.1
				s-1.3-1.9-1.3-3.1c0-1,0.3-1.9,0.8-2.7s1.3-1.5,2.4-2c1-0.5,2.3-0.8,3.8-0.8c1.8,0,3.3,0.4,4.6,1.1c1.3,0.8,2.2,1.6,2.7,2.7
				l-3,1.9c-0.4-0.7-1-1.3-1.8-1.7c-0.8-0.4-1.6-0.7-2.6-0.7c-0.9,0-1.6,0.2-2.1,0.6s-0.7,0.9-0.7,1.4s0.2,1,0.8,1.3
				c0.5,0.3,1.3,0.6,2.4,0.9l2,0.5c1.8,0.5,3.2,1.1,4.1,2s1.3,1.9,1.3,3.3c0,1.2-0.3,2.2-0.9,3.1s-1.5,1.6-2.6,2.1s-2.3,0.7-3.7,0.7
				C218.5,284.7,216.9,284.3,215.4,283.6L215.4,283.6z"/>
			<path class="st10" d="M248.3,266.1v3.2h-5.6v9.5c0,0.8,0.2,1.3,0.7,1.7s1,0.6,1.8,0.6c0.9,0,1.8-0.2,2.7-0.7v3.5
				c-0.4,0.2-0.9,0.4-1.6,0.5c-0.6,0.1-1.2,0.2-1.7,0.2c-2,0-3.4-0.5-4.4-1.4c-0.9-0.9-1.4-2.4-1.4-4.3v-9.5h-2.6v-3.2h2.6v-4.5
				l3.9-3v7.4L248.3,266.1L248.3,266.1z"/>
			<path class="st10" d="M265.7,267.5c1.2,1.2,1.9,2.8,1.9,4.9v11.8h-3.9v-10.9c0-1.4-0.3-2.5-0.9-3.1c-0.6-0.6-1.5-1-2.8-1
				c-1.5,0-2.7,0.5-3.6,1.3c-0.9,0.9-1.4,2.1-1.4,3.7v9.9h-3.9v-25.8h3.9v10.3c0.6-1,1.4-1.7,2.4-2.2s2.2-0.8,3.4-0.8
				C262.9,265.7,264.5,266.3,265.7,267.5L265.7,267.5z"/>
			<path class="st10" d="M284.8,266.9c1.5,0.8,2.6,2,3.4,3.4c0.8,1.5,1.2,3.1,1.2,4.9l-14.8,2.1c0.4,1.1,1.1,2,2.1,2.6s2.1,1,3.3,1
				s2.3-0.3,3.2-0.9c0.9-0.6,1.6-1.4,2.1-2.5l3.6,1.2c-0.7,1.7-1.9,3.1-3.5,4.2c-1.6,1.1-3.4,1.6-5.4,1.6c-1.8,0-3.4-0.4-4.8-1.2
				s-2.6-2-3.4-3.4c-0.8-1.5-1.2-3-1.2-4.8s0.4-3.4,1.2-4.8s2-2.6,3.4-3.4s3.1-1.2,4.9-1.2S283.3,266.1,284.8,266.9L284.8,266.9z
				 M276.1,270.6c-1,0.9-1.6,2.1-1.8,3.6l10.7-1.5c-0.8-2.4-2.4-3.6-5-3.6C278.4,269.2,277.1,269.7,276.1,270.6L276.1,270.6z"/>
			<path class="st10" d="M313.7,267.5c1.2,1.2,1.9,2.8,1.9,4.9v11.8h-3.9v-10.9c0-1.4-0.3-2.5-0.9-3.1c-0.6-0.6-1.5-1-2.8-1
				c-1.5,0-2.7,0.5-3.6,1.3c-0.9,0.9-1.4,2.1-1.4,3.7v9.9h-3.9v-18.1h3.9v2.6c0.6-1,1.4-1.7,2.4-2.2s2.2-0.8,3.4-0.8
				C310.8,265.7,312.4,266.3,313.7,267.5L313.7,267.5z"/>
			<path class="st10" d="M332.7,266.9c1.5,0.8,2.6,2,3.4,3.4c0.8,1.5,1.2,3.1,1.2,4.9l-14.8,2.1c0.4,1.1,1.1,2,2.1,2.6s2.1,1,3.3,1
				s2.3-0.3,3.2-0.9c0.9-0.6,1.6-1.4,2.1-2.5l3.6,1.2c-0.7,1.7-1.9,3.1-3.5,4.2c-1.6,1.1-3.4,1.6-5.4,1.6c-1.8,0-3.4-0.4-4.8-1.2
				s-2.6-2-3.4-3.4c-0.8-1.5-1.2-3-1.2-4.8s0.4-3.4,1.2-4.8s2-2.6,3.4-3.4s3.1-1.2,4.9-1.2S331.3,266.1,332.7,266.9L332.7,266.9z
				 M324,270.6c-1,0.9-1.6,2.1-1.8,3.6l10.7-1.5c-0.8-2.4-2.4-3.6-5-3.6C326.3,269.2,325,269.7,324,270.6L324,270.6z"/>
			<path class="st10" d="M357.1,284.2h-4.6l-4.7-6.5l-4.8,6.5h-4.6l6.7-9.3l-6.4-8.8h4.6l4.5,6.1l4.5-6.1h4.6l-6.5,8.9L357.1,284.2
				L357.1,284.2z"/>
			<path class="st10" d="M370.6,266.1v3.2h-5.6v9.5c0,0.8,0.2,1.3,0.7,1.7s1,0.6,1.8,0.6c0.9,0,1.8-0.2,2.7-0.7v3.5
				c-0.4,0.2-0.9,0.4-1.6,0.5c-0.6,0.1-1.2,0.2-1.7,0.2c-2,0-3.4-0.5-4.4-1.4c-1-0.9-1.4-2.4-1.4-4.3v-9.5h-2.6v-3.2h2.6v-4.5l3.9-3
				v7.4L370.6,266.1L370.6,266.1z"/>
			<path class="st10" d="M394.9,267.5c1.2,1.2,1.9,2.8,1.9,4.9v11.8h-3.9v-10.9c0-1.4-0.3-2.5-0.9-3.1c-0.6-0.6-1.5-1-2.8-1
				c-1.5,0-2.7,0.5-3.6,1.3c-0.9,0.9-1.4,2.1-1.4,3.7v9.9h-3.9v-25.8h3.9v10.3c0.6-1,1.4-1.7,2.4-2.2s2.2-0.8,3.4-0.8
				C392.1,265.7,393.7,266.3,394.9,267.5L394.9,267.5z"/>
			<path class="st10" d="M418.3,266.1v18.1h-3.8v-2.7c-0.7,1-1.5,1.7-2.6,2.3s-2.2,0.8-3.5,0.8c-1.7,0-3.2-0.4-4.5-1.2
				s-2.4-2-3.1-3.4c-0.8-1.4-1.1-3-1.1-4.8s0.4-3.3,1.1-4.8s1.8-2.6,3.1-3.4c1.3-0.8,2.8-1.2,4.5-1.2c1.3,0,2.5,0.3,3.5,0.8
				s1.9,1.3,2.6,2.3v-2.7L418.3,266.1L418.3,266.1z M411.7,280.2c0.8-0.5,1.5-1.2,2-2.1s0.7-1.9,0.7-3c0-1.2-0.2-2.2-0.8-3.1
				c-0.5-0.9-1.2-1.5-2-2s-1.7-0.7-2.7-0.7c-1,0-1.9,0.2-2.8,0.8c-0.8,0.5-1.5,1.2-2,2.1c-0.5,0.9-0.7,1.9-0.7,3s0.2,2.1,0.7,3
				s1.1,1.6,2,2.1c0.8,0.5,1.8,0.8,2.8,0.8S410.9,280.7,411.7,280.2L411.7,280.2z"/>
			<path class="st10" d="M426,283.4c-1.4-0.8-2.6-2-3.4-3.4s-1.2-3.1-1.2-4.8s0.4-3.4,1.2-4.8s2-2.6,3.4-3.4c1.4-0.8,3-1.2,4.8-1.2
				c2,0,3.8,0.5,5.3,1.5s2.7,2.4,3.4,4.1l-3.7,1.2c-0.5-1-1.1-1.8-2-2.4c-0.9-0.6-1.9-0.9-3-0.9c-1,0-1.9,0.3-2.7,0.8
				c-0.8,0.5-1.5,1.2-2,2.1s-0.7,1.9-0.7,3s0.2,2.1,0.7,3c0.5,0.9,1.1,1.6,2,2.1s1.7,0.8,2.7,0.8c1.1,0,2.1-0.3,3-0.9s1.5-1.4,2-2.4
				l3.7,1.2c-0.7,1.7-1.9,3.1-3.4,4.1c-1.5,1-3.3,1.5-5.3,1.5C429,284.6,427.4,284.2,426,283.4L426,283.4z"/>
			<path class="st10" d="M459.1,284.2h-5l-8.2-9.8v9.8H442v-25.8h3.9v16l7.7-8.3h4.8l-7.9,8.2L459.1,284.2L459.1,284.2z"/>
			<path class="st10" d="M477.5,266.1v18.1h-3.8v-2.7c-0.7,1-1.5,1.7-2.6,2.3s-2.2,0.8-3.5,0.8c-1.7,0-3.2-0.4-4.5-1.2
				s-2.4-2-3.1-3.4c-0.8-1.4-1.1-3-1.1-4.8s0.4-3.3,1.1-4.8s1.8-2.6,3.1-3.4c1.3-0.8,2.8-1.2,4.5-1.2c1.3,0,2.5,0.3,3.5,0.8
				s1.9,1.3,2.6,2.3v-2.7L477.5,266.1L477.5,266.1z M471,280.2c0.8-0.5,1.5-1.2,2-2.1s0.7-1.9,0.7-3c0-1.2-0.2-2.2-0.8-3.1
				c-0.5-0.9-1.2-1.5-2-2s-1.7-0.7-2.7-0.7c-1,0-1.9,0.2-2.8,0.8c-0.8,0.5-1.5,1.2-2,2.1c-0.5,0.9-0.7,1.9-0.7,3s0.2,2.1,0.7,3
				s1.1,1.6,2,2.1c0.8,0.5,1.8,0.8,2.8,0.8S470.1,280.7,471,280.2L471,280.2z"/>
			<path class="st10" d="M492.6,266.1v3.2h-5.6v9.5c0,0.8,0.2,1.3,0.7,1.7s1,0.6,1.8,0.6c0.9,0,1.8-0.2,2.7-0.7v3.5
				c-0.4,0.2-0.9,0.4-1.6,0.5c-0.6,0.1-1.2,0.2-1.7,0.2c-2,0-3.4-0.5-4.4-1.4c-1-0.9-1.4-2.4-1.4-4.3v-9.5h-2.6v-3.2h2.6v-4.5l3.9-3
				v7.4L492.6,266.1L492.6,266.1z"/>
			<path class="st10" d="M509.9,267.5c1.2,1.2,1.9,2.8,1.9,4.9v11.8h-3.9v-10.9c0-1.4-0.3-2.5-0.9-3.1c-0.6-0.6-1.5-1-2.8-1
				c-1.5,0-2.7,0.5-3.6,1.3c-0.9,0.9-1.4,2.1-1.4,3.7v9.9h-3.9v-25.8h3.9v10.3c0.6-1,1.4-1.7,2.4-2.2s2.2-0.8,3.4-0.8
				C507.1,265.7,508.7,266.3,509.9,267.5L509.9,267.5z"/>
			<path class="st10" d="M519.3,283.4c-1.5-0.8-2.6-2-3.4-3.4c-0.8-1.5-1.2-3.1-1.2-4.9s0.4-3.4,1.2-4.9c0.8-1.5,2-2.6,3.4-3.4
				s3.1-1.2,4.9-1.2s3.4,0.4,4.9,1.2s2.6,2,3.4,3.4s1.2,3.1,1.2,4.9s-0.4,3.4-1.2,4.9c-0.8,1.5-2,2.6-3.4,3.4s-3.1,1.2-4.9,1.2
				S520.7,284.2,519.3,283.4z M526.9,280.2c0.8-0.5,1.5-1.2,2-2.1c0.5-0.9,0.7-1.9,0.7-3s-0.2-2.1-0.7-3s-1.2-1.6-2-2.1
				s-1.8-0.8-2.8-0.8s-2,0.2-2.8,0.8c-0.8,0.5-1.5,1.2-2,2.1c-0.5,0.9-0.7,1.9-0.7,3s0.2,2.1,0.7,3s1.1,1.6,2,2.1s1.8,0.8,2.8,0.8
				S526.1,280.7,526.9,280.2z"/>
			<path class="st10" d="M551.4,267.5c1.2,1.2,1.9,2.8,1.9,4.9v11.8h-3.9v-10.9c0-1.4-0.3-2.5-0.9-3.1c-0.6-0.6-1.5-1-2.8-1
				c-1.5,0-2.7,0.5-3.6,1.3c-0.9,0.9-1.4,2.1-1.4,3.7v9.9h-3.9v-18.1h3.9v2.6c0.6-1,1.4-1.7,2.4-2.2s2.2-0.8,3.4-0.8
				C548.5,265.7,550.1,266.3,551.4,267.5L551.4,267.5z"/>
			<path class="st10" d="M563.9,258.4h3.9v25.8h-3.9V258.4z"/>
			<path class="st10" d="M575.5,283.4c-1.5-0.8-2.6-2-3.4-3.4c-0.8-1.5-1.2-3.1-1.2-4.9s0.4-3.4,1.2-4.9c0.8-1.5,2-2.6,3.4-3.4
				s3.1-1.2,4.9-1.2s3.4,0.4,4.9,1.2s2.6,2,3.4,3.4s1.2,3.1,1.2,4.9s-0.4,3.4-1.2,4.9c-0.8,1.5-2,2.6-3.4,3.4s-3.1,1.2-4.9,1.2
				S577,284.2,575.5,283.4z M583.2,280.2c0.8-0.5,1.5-1.2,2-2.1c0.5-0.9,0.7-1.9,0.7-3s-0.2-2.1-0.7-3s-1.2-1.6-2-2.1
				s-1.8-0.8-2.8-0.8s-2,0.2-2.8,0.8c-0.8,0.5-1.5,1.2-2,2.1c-0.5,0.9-0.7,1.9-0.7,3s0.2,2.1,0.7,3s1.1,1.6,2,2.1s1.8,0.8,2.8,0.8
				S582.3,280.7,583.2,280.2z"/>
			<path class="st10" d="M596.8,283.4c-1.4-0.8-2.6-2-3.4-3.4s-1.2-3.1-1.2-4.8s0.4-3.4,1.2-4.8s2-2.6,3.4-3.4
				c1.4-0.8,3-1.2,4.8-1.2c2,0,3.8,0.5,5.3,1.5s2.7,2.4,3.4,4.1l-3.7,1.2c-0.5-1-1.1-1.8-2-2.4c-0.9-0.6-1.9-0.9-3-0.9
				c-1,0-1.9,0.3-2.7,0.8c-0.8,0.5-1.5,1.2-2,2.1c-0.5,0.9-0.7,1.9-0.7,3s0.2,2.1,0.7,3c0.5,0.9,1.1,1.6,2,2.1s1.7,0.8,2.7,0.8
				c1.1,0,2.1-0.3,3-0.9s1.5-1.4,2-2.4l3.7,1.2c-0.7,1.7-1.9,3.1-3.4,4.1c-1.5,1-3.3,1.5-5.3,1.5
				C599.8,284.6,598.2,284.2,596.8,283.4L596.8,283.4z"/>
			<path class="st10" d="M630.5,266.1v18.1h-3.8v-2.7c-0.7,1-1.5,1.7-2.6,2.3s-2.2,0.8-3.5,0.8c-1.7,0-3.2-0.4-4.5-1.2
				s-2.4-2-3.2-3.4s-1.1-3-1.1-4.8s0.4-3.3,1.1-4.8s1.8-2.6,3.2-3.4c1.3-0.8,2.8-1.2,4.5-1.2c1.3,0,2.5,0.3,3.5,0.8s1.9,1.3,2.6,2.3
				v-2.7L630.5,266.1L630.5,266.1z M623.9,280.2c0.8-0.5,1.5-1.2,2-2.1s0.7-1.9,0.7-3c0-1.2-0.2-2.2-0.8-3.1c-0.5-0.9-1.2-1.5-2-2
				s-1.7-0.7-2.7-0.7c-1,0-1.9,0.2-2.8,0.8c-0.8,0.5-1.5,1.2-2,2.1c-0.5,0.9-0.7,1.9-0.7,3s0.2,2.1,0.7,3c0.5,0.9,1.1,1.6,2,2.1
				s1.8,0.8,2.8,0.8S623.1,280.7,623.9,280.2L623.9,280.2z"/>
			<path class="st10" d="M645.5,266.1v3.2h-5.6v9.5c0,0.8,0.2,1.3,0.7,1.7s1,0.6,1.8,0.6c0.9,0,1.8-0.2,2.7-0.7v3.5
				c-0.4,0.2-0.9,0.4-1.6,0.5c-0.6,0.1-1.2,0.2-1.7,0.2c-2,0-3.4-0.5-4.4-1.4c-1-0.9-1.4-2.4-1.4-4.3v-9.5h-2.6v-3.2h2.6v-4.5l3.9-3
				v7.4L645.5,266.1L645.5,266.1z"/>
			<path class="st10" d="M648.6,263.2c-0.5-0.5-0.7-1-0.7-1.7s0.2-1.2,0.7-1.7s1-0.7,1.7-0.7s1.2,0.2,1.7,0.7c0.5,0.5,0.7,1,0.7,1.7
				s-0.2,1.2-0.7,1.7c-0.5,0.5-1,0.7-1.7,0.7S649.1,263.6,648.6,263.2z M648.3,266.1h3.9v18.1h-3.9V266.1z"/>
			<path class="st10" d="M660,283.4c-1.5-0.8-2.6-2-3.4-3.4c-0.8-1.5-1.2-3.1-1.2-4.9s0.4-3.4,1.2-4.9c0.8-1.5,2-2.6,3.4-3.4
				s3.1-1.2,4.9-1.2s3.4,0.4,4.9,1.2s2.6,2,3.4,3.4s1.2,3.1,1.2,4.9s-0.4,3.4-1.2,4.9c-0.8,1.5-2,2.6-3.4,3.4s-3.1,1.2-4.9,1.2
				S661.4,284.2,660,283.4z M667.7,280.2c0.8-0.5,1.5-1.2,2-2.1c0.5-0.9,0.7-1.9,0.7-3s-0.2-2.1-0.7-3s-1.2-1.6-2-2.1
				s-1.8-0.8-2.8-0.8s-2,0.2-2.8,0.8c-0.8,0.5-1.5,1.2-2,2.1c-0.5,0.9-0.7,1.9-0.7,3s0.2,2.1,0.7,3s1.1,1.6,2,2.1s1.8,0.8,2.8,0.8
				S666.8,280.7,667.7,280.2z"/>
			<path class="st10" d="M692.1,267.5c1.2,1.2,1.9,2.8,1.9,4.9v11.8H690v-10.9c0-1.4-0.3-2.5-0.9-3.1c-0.6-0.6-1.5-1-2.8-1
				c-1.5,0-2.7,0.5-3.6,1.3c-0.9,0.9-1.4,2.1-1.4,3.7v9.9h-3.9v-18.1h3.9v2.6c0.6-1,1.4-1.7,2.4-2.2s2.2-0.8,3.4-0.8
				C689.2,265.7,690.8,266.3,692.1,267.5L692.1,267.5z"/>
			<path class="st10" d="M701.1,273.1c0.4-0.9,1.1-1.9,2.3-3l1-0.9c0.9-0.8,1.5-1.5,2-2.1c0.5-0.6,0.7-1.3,0.7-2.1
				c0-1-0.3-1.7-1-2.3s-1.5-0.9-2.7-0.9s-2.1,0.3-2.9,1s-1.3,1.7-1.6,2.9l-3.9-1.1c0.5-1.8,1.4-3.4,2.9-4.6s3.3-1.9,5.6-1.9
				c1.6,0,3,0.3,4.1,0.9s2.1,1.4,2.7,2.4s0.9,2.2,0.9,3.4c0,1.4-0.3,2.6-1,3.6c-0.7,1-1.7,2.1-2.9,3.2l-1,0.9
				c-0.7,0.6-1.1,1.2-1.4,1.8s-0.4,1.2-0.4,2v0.9h-3.9C700.6,275.4,700.7,274,701.1,273.1L701.1,273.1z M700.9,283.8
				c-0.5-0.5-0.7-1.1-0.7-1.8s0.2-1.3,0.7-1.7s1.1-0.7,1.8-0.7s1.3,0.2,1.8,0.7s0.7,1,0.7,1.7s-0.2,1.3-0.7,1.8s-1.1,0.7-1.8,0.7
				S701.4,284.3,700.9,283.8L700.9,283.8z"/>
			<path class="st10" d="M430.8,232.7c0.6,0.9,0.9,1.9,0.9,3c0,1-0.2,2-0.7,2.8s-1.2,1.5-2.1,2.1c-0.9,0.5-2,0.8-3.2,0.8
				c-1.7,0-3.1-0.4-4.2-1.2s-1.9-1.9-2.2-3.1l1.2-0.5c0.3,1,0.9,1.9,1.8,2.5c0.9,0.7,2,1,3.4,1c1,0,1.8-0.2,2.5-0.6
				c0.7-0.4,1.2-0.9,1.6-1.6s0.6-1.4,0.6-2.2s-0.2-1.5-0.6-2.1c-0.4-0.6-0.9-1.1-1.6-1.5c-0.7-0.4-1.5-0.6-2.5-0.6h-0.9v-1.2h0.9
				c0.8,0,1.5-0.2,2.2-0.5c0.6-0.4,1.1-0.8,1.4-1.4c0.3-0.6,0.5-1.3,0.5-2c0-0.6-0.2-1.2-0.5-1.8s-0.8-1-1.4-1.3s-1.4-0.5-2.2-0.5
				c-1.2,0-2.2,0.3-2.9,0.9s-1.2,1.4-1.6,2.4l-1.2-0.4c0.4-1.2,1.1-2.2,2.1-3s2.2-1.2,3.7-1.2c1.1,0,2.1,0.2,2.9,0.7s1.5,1,1.9,1.8
				c0.5,0.7,0.7,1.5,0.7,2.4c0,1-0.3,1.9-0.8,2.7s-1.3,1.4-2.2,1.8C429.3,231.2,430.2,231.8,430.8,232.7L430.8,232.7z"/>
			<path class="st10" d="M395.3,236.8c0.6-1.2,1.8-2.3,3.4-3.5l1.9-1.3c1-0.7,1.8-1.3,2.4-1.8s1-1,1.4-1.7c0.3-0.6,0.5-1.4,0.5-2.2
				c0-1.1-0.4-1.9-1.1-2.7s-1.8-1.1-3.1-1.1s-2.3,0.4-3.1,1.1s-1.4,1.6-1.7,2.7l-1.2-0.4c0.4-1.3,1.1-2.4,2.2-3.3
				c1.1-0.9,2.4-1.3,3.9-1.3c1.1,0,2.1,0.2,3,0.7c0.9,0.5,1.5,1.1,2,1.9s0.7,1.6,0.7,2.5c0,1-0.2,1.8-0.6,2.6
				c-0.4,0.8-1,1.5-1.6,2.1s-1.6,1.3-2.6,2l-1.9,1.3c-2.3,1.6-3.6,3.3-3.8,5h10.9v1.3h-12.2C394.3,239.3,394.6,238,395.3,236.8
				L395.3,236.8z"/>
		</g>
		<g>
			<path class="st9" d="M423.2,324.8c0-3-2.5-5.5-5.5-5.5s-5.5,2.5-5.5,5.5c0,1.5,0.6,2.9,1.6,3.9l9.4,9.4l9.4-9.4
				c1-1,1.6-2.4,1.6-3.9c0-3-2.5-5.5-5.5-5.5S423.2,321.8,423.2,324.8z"/>
			<path class="st10" d="M405.2,332.2v1.2h-3.1v4.9h-1.4v-4.9h-9.1v-1.2l8-13h2.4v13H405.2L405.2,332.2z M393.1,332.2h7.7v-12.4
				L393.1,332.2z"/>
		</g>
	</g>
</g>
<g id="c">
</g>
</svg>
